<?xml version="1.0" encoding="UTF-8"?><svg xmlns="http://www.w3.org/2000/svg" xmlns:xlink="http://www.w3.org/1999/xlink" viewBox="0 0 1862.36 1137.28"><defs><style>.j{fill:url(#e);}.k{fill:url(#d);}.l{fill:url(#g);}.m{fill:url(#f);}.n{fill:url(#i);}.o{fill:url(#h);}.p{fill:#f4cd98;}.q{fill:#f0f7ff;}.r{fill:#fff;}.s{fill:#b9b8e8;}.t{fill:#c3edff;}.u{fill:#93d4ff;}.v{fill:#5b6775;}</style><linearGradient id="d" x1="1365.22" y1="374.45" x2="1862.36" y2="374.45" gradientTransform="matrix(1, 0, 0, 1, 0, 0)" gradientUnits="userSpaceOnUse"><stop offset="0" stop-color="#f0f7ff"/><stop offset=".13" stop-color="#e3f4ff"/><stop offset=".4" stop-color="#d1f0ff"/><stop offset=".69" stop-color="#c6edff"/><stop offset="1" stop-color="#c3edff"/></linearGradient><linearGradient id="e" x1="514.62" y1="1231.34" x2="745.43" y2="951.81" gradientTransform="matrix(1, 0, 0, 1, 0, 0)" gradientUnits="userSpaceOnUse"><stop offset="0" stop-color="#c3edff"/><stop offset=".28" stop-color="#c9eeff"/><stop offset=".67" stop-color="#dbf2ff"/><stop offset="1" stop-color="#f0f7ff"/></linearGradient><linearGradient id="f" x1="1205.86" y1="57.97" x2="1165.03" y2="209.45" gradientTransform="matrix(1, 0, 0, 1, 0, 0)" gradientUnits="userSpaceOnUse"><stop offset="0" stop-color="#c3edff"/><stop offset=".29" stop-color="#c7edff"/><stop offset=".6" stop-color="#d4f0ff"/><stop offset=".93" stop-color="#eaf5ff"/><stop offset="1" stop-color="#f0f7ff"/></linearGradient><linearGradient id="g" x1="1294.07" y1="197.64" x2="1250.09" y2="265.54" xlink:href="#f"/><linearGradient id="h" x1="0" y1="440.45" x2="722.51" y2="440.45" xlink:href="#f"/><linearGradient id="i" x1=".27" y1="336.73" x2="687.58" y2="336.73" gradientTransform="matrix(1, 0, 0, 1, 0, 0)" gradientUnits="userSpaceOnUse"><stop offset="0" stop-color="#94d4ff"/><stop offset=".46" stop-color="#95d4ff"/><stop offset=".62" stop-color="#9cd7ff"/><stop offset=".74" stop-color="#a8dbff"/><stop offset=".83" stop-color="#b9e2ff"/><stop offset=".92" stop-color="#cfeaff"/><stop offset=".99" stop-color="#e9f4ff"/><stop offset="1" stop-color="#f0f7ff"/></linearGradient></defs><g id="a"/><g id="b"><g id="c"><g><g><path class="k" d="M1365.22,419.51s118.57-7.49,244.81-194.17c10.59-15.66,18.77-32.82,24.59-50.81,18.68-57.69,76.2-197.78,180.49-140.64,99.82,54.7,10.94,243.41-58.8,251.61,0,0,34.19,17.78,5.47,57.43,0,0,57.43-2.73,16.41,51.96,0,0,43.76-2.73,75.21,35.55,31.45,38.29-21.88,116.23-128.54,84.78,0,0,36.92,41.02-30.08,86.15,0,0,47.86,34.19,32.82,80.68,0,0,5.47-5.47,17.78-2.73,12.31,2.73,8.2,17.78,8.2,17.78,0,0-8.2,19.14-34.19,4.1,0,0-21.88,34.19-87.52,25.98-65.64-8.2-69.74-65.64-69.74-65.64,0,0-15.04,25.98-38.29,25.98s-49.23-5.47-57.43-38.29c0,0-42.39,12.31-84.78-57.43l-16.41-172.3Z"/><circle class="t" cx="1763.15" cy="553.52" r="16.41"/><circle class="t" cx="1774.08" cy="675.22" r="9.57"/><path class="u" d="M1366.19,420.09s118.57-7.49,244.81-194.17c10.59-15.66,18.77-32.82,24.59-50.81,18.68-57.69,76.2-197.78,180.49-140.64,99.82,54.7,10.94,243.41-58.8,251.61,0,0-40.63,11.72-59.78,11.72,0,0-8.51,30.38-31.25,48.75-.37,.3,0,.89,.43,.68,10.55-5.18,34.53-14.19,28.08,14.84-8.2,36.92-62.9,84.78-92.99,92.99-16.32,4.45-27.41-1.16-34.14-7.23-4.95-4.47-12.47-4.29-17.23,.38-9.89,9.72-27.41,20.78-49.82,9.58-35.55-17.78-35.55,72.48-101.19,62.9l-33.21-100.61Z"/></g><path class="j" d="M745.76,840.68l-227,220.16s-13.67,30.08,19.14,6.84c0,0-39.66,43.76-30.08,62.9,9.57,19.14,75.21-6.84,88.88-27.35,0,0,16.41,21.88,51.96-5.47l10.51,8.76c3.26,2.72,8.11,2.3,10.86-.95l10.08-11.92s27.35,27.35,69.74-30.08c0,0,19.14,83.41,118.97-140.85l-123.07-82.05Z"/><path class="u" d="M1525.5,485.38c2.87,1.72,4.51,4.95,4.14,8.27-.68,6.04-4.78,15.47-22.21,21.57-27.35,9.57-34-4.1-34-4.1,0,0-9.76-21.88,20.33-31.45,0,0,14.29-4.76,31.75,5.71Z"/><path class="m" d="M1205.67,248.07c80.58-81.82,26.29-150.16,15.45-162.21-1.13-1.25-1.65-2.92-1.51-4.6,5.15-60.78-48.21-77.55-64.19-81.2-1.94-.44-3.57,1.44-2.89,3.31,56.52,155.31-60.35,203.67-60.35,203.67l113.5,41.02Z"/><path class="l" d="M1193.1,240.36s64.27-27.35,146.32-6.84c0,0-16.41,47.86-51.96,68.37l-94.35-61.54Z"/><path class="q" d="M1205.67,248.07l93.91,60.67s85.83,43.76,103.08,202.38c0,0,40.5,13.67,56.91,51.96,0,0-10.94,5.47-30.08,6.84,0,0,36.92,19.14,41.02,46.49,0,0-15.04,17.78-47.86,17.78,0,0,15.04,6.84,9.57,32.82,0,0-3.26,4.1-28.98,0,0,0-22.98,179.14-143.32,206.49,0,0-5.47-9.57-1.37-19.14,0,0-60.17,84.78-240.67,84.78,0,0-64.27,5.47-112.13-12.31,0,0,6.84,6.84,6.84,10.94,0,0-128.54-2.73-190.08-101.19,0,0-16.41,0-32.82-30.08,0,0-2.73,4.1-5.47,5.47-38.29-24.61-83.41-165.46-34.99-357.93,48.42-192.47,229.17-225.98,229.17-225.98,0,0,61.54-56.07,139.48-32.82,0,0,25.98-4.1,73.84,10.94l113.5,41.02"/><path class="v" d="M1191.55,862.56l28.72,65.64,54.84,20.69c.71,.32,.53,1.37-.25,1.44l-43.72,1.08c-.67,.02-1.14,.65-.98,1.3l14.46,55.24c.13,.71-.73,1.16-1.24,.65l-37.41-35.93c-.41-.4-1.07-.38-1.46,.03l-32.7,33.96c-.57,.59-1.55,.04-1.34-.75l19.72-59.93-32.82-68.37s16.8,3.88,25.28-7.22c.43-.57,1.12-.9,1.84-.9,2-.01,6.06-.81,7.07-6.92Z"/><path class="v" d="M994.35,982.4l-32.6,54.01c-.38,.73,.45,1.48,1.14,1.03l39.46-25.8c.48-.31,1.12-.18,1.43,.3l28.45,43.37c.38,.61,1.32,.36,1.36-.36l-1.76-57.07c-.02-.67,.59-1.18,1.24-1.05l42.85,8.71c.77,.1,1.18-.88,.56-1.35l-48.84-32.41-13.34-70.39s-13.74,5.21-21.04,1.08c-.92-.52-2.08-.31-2.81,.46-2.05,2.16-6.42,5.72-12.23,4.75l16.13,74.71Z"/><g><path class="o" d="M722.51,783.25s-23.25,27.35-67.18,27.21c0,0-24.73,5.99-29.25-22.78-.17-1.09-.87-2.06-1.92-2.6l-7.43-3.8c-.7-.36-1.5-.51-2.3-.44-4.93,.46-23.86,2.61-45.07,9.96-4.42,1.53-9.51,.84-12.84-2.13-.05-.05-.11-.1-.16-.15-.38-.35-.98-.44-1.44-.16-5.89,3.52-43.41,24.81-65.48,10.06-24-16.04-48.79,3.41-61.3-11.96-12.51-15.37-15.27-31.42,3.22-47.48,17.83-15.48-12.44-23.49-40.04-10.35-1.85,.88-4.08,.75-5.75-.35-4.03-2.66-11.76-7-17.44-5.55-8.03,2.04-63.64-22.14-67.63-55.82,0,0-278.96,17.8-223.82-339.01,0,0-21.05-20.68-8.16-46.69,0,0-111.77-68.17-49.78-183.12C106.31-64.32,338.98,531.83,693.79,468.74l-1.58,36.24c-3.49,80.32,3.72,160.75,21.45,239.17l8.84,39.11Z"/><path class="t" d="M423.03,783.67c-.75-.2-1.54,.26-1.8,.93-.58,1.51-2.68,5.18-9.25,4.46-8.23-.9-27.75,.46-26.82,13.69,.92,13.23,39.54,4.62,40.24-8.72,.42-8-1.09-10.03-2.37-10.36Z"/><path class="t" d="M580.93,821.56s-6.71-2.48-11.18,3.73c-4.47,6.22-20.32,13.23-30.08,13.92-9.76,.68-49.38,18.22-60.96,39.7-11.57,21.48,48.1,33.56,87.51-10.54,39.41-44.1,14.7-46.81,14.7-46.81Z"/></g><path class="u" d="M360.13,549.2c2.5,4.85,2.01,10.74-1.37,15.03-6.14,7.79-19.93,17.35-49.35,10.84-46.16-10.22-43.64-34.91-43.64-34.91,0,0,5.27-38.73,55.22-26.16,0,0,23.91,5.67,39.14,35.2Z"/><path class="n" d="M687.58,600.82c-73.22,10.38-99-17.86-99-17.86-75.95,12.07-118.05-34.06-123.83-40.9-.22-.26-.62-.07-.6,.27,.63,8.39,.15,13.39-.42,16.21-.38,1.86-2.19,3.05-4.06,2.72-45.53-7.98-61.24-44.64-61.24-44.64-38.29,16.41-64.27-19.14-64.27-19.14-165.46,28.72-262.55-15.04-264.68-80.04-1.55-47.15,7.48-89.11,7.48-89.11,0,0-21.05-20.68-8.16-46.69,0,0-111.77-68.17-49.78-183.12C106.59-63.9,339.25,532.25,694.07,469.15l-6.49,131.66Z"/><path class="p" d="M966.13,599.18c21.16-15.42,79.88-54.6,140.94-63.12,.24-.03,.48-.06,.73-.07,4.12-.17,40.72-.34,119.14,40.1,4.16,2.15,5.16,7.67,2.01,11.13-14.27,15.7-53.27,53.31-107.53,63.67-.23,.04-.45,.08-.69,.1-5.64,.56-78.04,6.69-154.09-39.93-4.35-2.66-4.62-8.88-.5-11.88Z"/><g><ellipse class="s" cx="1245.56" cy="469.48" rx="36.24" ry="52.71" transform="translate(-40.34 125.53) rotate(-5.68)"/><circle class="r" cx="1254.3" cy="449.63" r="18.99"/><circle class="r" cx="1244.27" cy="466.3" r="9.88"/></g><g><ellipse class="s" cx="894.13" cy="498.2" rx="36.24" ry="52.71" transform="translate(-44.9 90.91) rotate(-5.68)"/><circle class="r" cx="902.86" cy="478.34" r="18.99"/><circle class="r" cx="892.84" cy="495.02" r="9.88"/></g></g></g></g></svg>